# xmcd CD database file
#
# Track frame offsets:
#	150
#	14012
#	27072
#	47497
#	59422
#	70830
#	83962
#	98477
#	109350
#	120517
#	132822
#	149145
#	162807
#	179045
#
# Disc length: 2593 seconds
#
# Revision: 2
# Processed by: cddbd v1.5.2PL0 Copyright (c) Steve Scherf et al.
# Submitted via: CDex 1.70beta2
#
DISCID=c30a1f0e
DTITLE=The Meters - The Meters
DYEAR=1969
DGENRE=R&B
TTITLE0=Cissy Strut
TTITLE1=Here Comes The Meter Man
TTITLE2=Cardova
TTITLE3=Live Wire
TTITLE4=Art
TTITLE5=Sophisticated Cissy
TTITLE6=Ease Back
TTITLE7=6v6 La
TTITLE8=Sehorn's Farm
TTITLE9=Ann
TTITLE10=Stormy
TTITLE11=Sing A Simple Song
TTITLE12=The Look Of Love
TTITLE13=Soul Machine
EXTD=YEAR: 1969
EXTT0=
EXTT1=
EXTT2=
EXTT3=
EXTT4=
EXTT5=
EXTT6=
EXTT7=
EXTT8=
EXTT9=
EXTT10=
EXTT11=
EXTT12=
EXTT13=
PLAYORDER=
